<svg xmlns="http://www.w3.org/2000/svg" width="1080" height="1350" viewBox="0 0 1080 1350" fill="none">
  <defs>
    <linearGradient id="bg" x1="0" y1="0" x2="1080" y2="1350" gradientUnits="userSpaceOnUse">
      <stop stop-color="#090A12"/>
      <stop offset="0.55" stop-color="#11131D"/>
      <stop offset="1" stop-color="#0B1016"/>
    </linearGradient>
    <linearGradient id="venue" x1="0" y1="0" x2="320" y2="150" gradientUnits="userSpaceOnUse">
      <stop stop-color="#46246C"/>
      <stop offset="1" stop-color="#FF5C5C"/>
    </linearGradient>
    <filter id="shadow" x="-80" y="-80" width="1240" height="1510" filterUnits="userSpaceOnUse">
      <feDropShadow dx="0" dy="34" stdDeviation="44" flood-color="#000000" flood-opacity="0.46"/>
    </filter>
  </defs>
  <style>text{font-family:Inter,Arial,sans-serif}</style>
  <rect width="1080" height="1350" fill="url(#bg)"/>
  <rect x="-80" y="-40" width="1240" height="337.5" fill="#C8FF3D" opacity="0.06"/>
  <rect x="-120" y="297" width="453.59999999999997" height="918.0000000000001" fill="#56D6FF" opacity="0.075"/>
  <rect x="777.6" y="243" width="367.20000000000005" height="783" fill="#FF5C5C" opacity="0.055"/>
  
  <text x="72" y="118" fill="#C8FF3D" font-size="20" font-weight="900" letter-spacing="1.5">CAROUSEL CONCEPT</text>
  <text x="72" y="210" fill="white" font-size="66" font-weight="900">3 reasons to try NITEFY.</text>
  <g transform="translate(70 330)">
    <rect width="280" height="620" rx="28" fill="#10131B" stroke="white" stroke-opacity="0.12"/>
    <text x="32" y="72" fill="#C8FF3D" font-size="52" font-weight="900">01</text>
    <text x="32" y="150" fill="white" font-size="36" font-weight="900">Connect</text>
    <text x="32" y="192" fill="white" font-size="36" font-weight="900">Spotify</text>
    <text x="32" y="252" fill="white" opacity="0.66" font-size="20" font-weight="500">Let your recent taste shape the night.</text>
    <rect x="32" y="420" width="216" height="60" rx="30" fill="#C8FF3D"/>
    <text x="72" y="458" fill="#090A12" font-size="20" font-weight="900">Connect</text>
  </g>
  <g transform="translate(400 330)">
    <rect width="280" height="620" rx="28" fill="#10131B" stroke="white" stroke-opacity="0.12"/>
    <text x="32" y="72" fill="#C8FF3D" font-size="52" font-weight="900">02</text>
    <text x="32" y="150" fill="white" font-size="36" font-weight="900">Set the</text>
    <text x="32" y="192" fill="white" font-size="36" font-weight="900">vibe</text>
    <text x="32" y="252" fill="white" opacity="0.66" font-size="20" font-weight="500">Pick energy, distance and budget fast.</text>
    
      <rect x="32" y="420" width="116" height="34" rx="17" fill="#C8FF3D" opacity="1" stroke="#C8FF3D" stroke-opacity="1"/>
      <text x="46" y="442" fill="#090A12" opacity="1" font-size="12" font-weight="900">High energy</text>
    
      <rect x="32" y="470" width="90" height="34" rx="17" fill="white" opacity="0.075" stroke="white" stroke-opacity="0.12"/>
      <text x="46" y="492" fill="white" opacity="0.78" font-size="12" font-weight="700">Techno</text>
  </g>
  <g transform="translate(730 330)">
    <rect width="280" height="620" rx="28" fill="#10131B" stroke="white" stroke-opacity="0.12"/>
    <text x="32" y="72" fill="#C8FF3D" font-size="52" font-weight="900">03</text>
    <text x="32" y="150" fill="white" font-size="36" font-weight="900">Find the</text>
    <text x="32" y="192" fill="white" font-size="36" font-weight="900">right room</text>
    <text x="32" y="252" fill="white" opacity="0.66" font-size="20" font-weight="500">Swipe venues ranked by fit.</text>
    <rect x="32" y="390" width="216" height="130" rx="18" fill="url(#venue)"/>
    <rect x="48" y="408" width="70" height="30" rx="15" fill="#C8FF3D"/>
    <text x="68" y="428" fill="#090A12" font-size="11" font-weight="900">92%</text>
    <text x="48" y="560" fill="white" font-size="24" font-weight="900">SilQ Club</text>
  </g>
  <text x="72" y="1120" fill="white" opacity="0.62" font-size="26" font-weight="500">Built for young nightlife decisions in Dusseldorf.</text>

</svg>