<svg xmlns="http://www.w3.org/2000/svg" width="1080" height="1920" viewBox="0 0 1080 1920" fill="none">
  <defs>
    <linearGradient id="bg" x1="0" y1="0" x2="1080" y2="1920" gradientUnits="userSpaceOnUse">
      <stop stop-color="#090A12"/>
      <stop offset="0.55" stop-color="#11131D"/>
      <stop offset="1" stop-color="#0B1016"/>
    </linearGradient>
    <linearGradient id="venue" x1="0" y1="0" x2="320" y2="150" gradientUnits="userSpaceOnUse">
      <stop stop-color="#46246C"/>
      <stop offset="1" stop-color="#FF5C5C"/>
    </linearGradient>
    <filter id="shadow" x="-80" y="-80" width="1240" height="2080" filterUnits="userSpaceOnUse">
      <feDropShadow dx="0" dy="34" stdDeviation="44" flood-color="#000000" flood-opacity="0.46"/>
    </filter>
  </defs>
  <style>text{font-family:Inter,Arial,sans-serif}</style>
  <rect width="1080" height="1920" fill="url(#bg)"/>
  <rect x="-80" y="-40" width="1240" height="480" fill="#C8FF3D" opacity="0.06"/>
  <rect x="-120" y="422.4" width="453.59999999999997" height="1305.6000000000001" fill="#56D6FF" opacity="0.075"/>
  <rect x="777.6" y="345.59999999999997" width="367.20000000000005" height="1113.6" fill="#FF5C5C" opacity="0.055"/>
  
  <text x="90" y="150" fill="#C8FF3D" font-size="24" font-weight="900" letter-spacing="2">NITEFY</text>
  <text x="90" y="248" fill="white" font-size="82" font-weight="900">Stop guessing</text>
  <text x="90" y="338" fill="white" font-size="82" font-weight="900">where to go.</text>
  
  <g filter="url(#shadow)">
    <rect x="345" y="430" width="390" height="844" rx="48" fill="#05060B" stroke="white" stroke-opacity="0.2"/>
    <clipPath id="clip-345-430"><rect x="361" y="446" width="358" height="812" rx="36"/></clipPath>
    <g clip-path="url(#clip-345-430)">
      <rect x="361" y="446" width="358" height="812" fill="#090A12"/>
      <rect x="361" y="446" width="358" height="180" fill="#C8FF3D" opacity="0.055"/>
      <rect x="361" y="560" width="130" height="620" fill="#56D6FF" opacity="0.055"/>
      <rect x="503" y="460" width="74" height="6" rx="3" fill="white" opacity="0.22"/>
      <text x="387" y="493" fill="white" opacity="0.72" font-size="11" font-weight="700">22:48</text>
      <text x="643" y="493" fill="white" opacity="0.72" font-size="11" font-weight="700">5G</text>

      <rect x="379" y="508" width="322" height="50" rx="16" fill="#090A12" opacity="0.44" stroke="white" stroke-opacity="0.08"/>
      <rect x="393" y="518" width="30" height="30" rx="8" fill="#C8FF3D"/>
      <text x="404" y="539" fill="#090A12" font-size="15" font-weight="900">N</text>
      <text x="435" y="534" fill="white" font-size="17" font-weight="900">NITEFY</text>
      <text x="435" y="549" fill="white" opacity="0.52" font-size="9" font-weight="700">Don't guess the night.</text>
      <rect x="659" y="518" width="30" height="30" rx="15" fill="white" opacity="0.08" stroke="white" stroke-opacity="0.12"/>
      <circle cx="674" cy="533" r="5" fill="#C8FF3D"/>

      <text x="385" y="618" fill="white" font-size="31" font-weight="900">Find your night</text>
      <text x="385" y="654" fill="white" font-size="31" font-weight="900">in Dusseldorf</text>
      <text x="385" y="698" fill="white" opacity="0.68" font-size="13" font-weight="500">Venues matched to your music taste, vibe and budget.</text>

      <rect x="385" y="734" width="310" height="56" rx="14" fill="#C8FF3D"/>
      <text x="407" y="768" fill="#090A12" font-size="18" font-weight="900">Connect Spotify</text>
      <text x="407" y="782" fill="#090A12" opacity="0.65" font-size="10" font-weight="700">Match from your real taste</text>
      <text x="671" y="770" fill="#090A12" font-size="18" font-weight="900">-&gt;</text>

      
      <rect x="385" y="826" width="78" height="34" rx="17" fill="#C8FF3D" opacity="1" stroke="#C8FF3D" stroke-opacity="1"/>
      <text x="399" y="848" fill="#090A12" opacity="1" font-size="12" font-weight="900">Hip-hop</text>
      
      <rect x="471" y="826" width="88" height="34" rx="17" fill="white" opacity="0.075" stroke="white" stroke-opacity="0.12"/>
      <text x="485" y="848" fill="white" opacity="0.78" font-size="12" font-weight="700">Afrobeat</text>
      
      <rect x="567" y="826" width="78" height="34" rx="17" fill="white" opacity="0.075" stroke="white" stroke-opacity="0.12"/>
      <text x="581" y="848" fill="white" opacity="0.78" font-size="12" font-weight="700">Techno</text>
      
      <rect x="385" y="880" width="108" height="34" rx="17" fill="#C8FF3D" opacity="1" stroke="#C8FF3D" stroke-opacity="1"/>
      <text x="399" y="902" fill="#090A12" opacity="1" font-size="12" font-weight="900">High energy</text>
      
      <rect x="501" y="880" width="64" height="34" rx="17" fill="white" opacity="0.075" stroke="white" stroke-opacity="0.12"/>
      <text x="515" y="902" fill="white" opacity="0.78" font-size="12" font-weight="700">Chill</text>
      
      <rect x="573" y="880" width="112" height="34" rx="17" fill="white" opacity="0.075" stroke="white" stroke-opacity="0.12"/>
      <text x="587" y="902" fill="white" opacity="0.78" font-size="12" font-weight="700">Underground</text>

      <rect x="385" y="940" width="310" height="66" rx="14" fill="#10131B" stroke="white" stroke-opacity="0.1"/>
      <text x="401" y="964" fill="white" opacity="0.86" font-size="12" font-weight="900">Distance</text>
      <text x="647" y="964" fill="#C8FF3D" font-size="12" font-weight="900">8 km</text>
      <rect x="401" y="988" width="270" height="8" rx="4" fill="white" opacity="0.12"/>
      <rect x="401" y="988" width="158" height="8" rx="4" fill="#C8FF3D"/>
      <circle cx="563" cy="992" r="13" fill="#C8FF3D"/>

      <text x="385" y="1064" fill="white" font-size="21" font-weight="900">Recommended tonight</text>
      <text x="647" y="1064" fill="#56D6FF" font-size="10" font-weight="900">Swipe</text>
      <rect x="385" y="1086" width="302" height="150" rx="16" fill="#10131B" stroke="#C8FF3D" stroke-opacity="0.34"/>
      <rect x="385" y="1086" width="302" height="74" rx="16" fill="url(#venue)"/>
      <rect x="399" y="1100" width="72" height="30" rx="15" fill="#C8FF3D"/>
      <text x="419" y="1120" fill="#090A12" font-size="11" font-weight="900">92%</text>
      <rect x="625" y="1100" width="48" height="30" rx="15" fill="black" opacity="0.5"/>
      <text x="635" y="1120" fill="white" font-size="10" font-weight="700">4.6</text>
      <text x="401" y="1184" fill="white" font-size="22" font-weight="900">SilQ Club</text>
      <text x="401" y="1210" fill="#56D6FF" font-size="12" font-weight="700">Altstadt · 1.8 km</text>
      <text x="401" y="1234" fill="white" opacity="0.68" font-size="12" font-weight="500">Packed dance floor, polished fits and hip-hop heat.</text>

      <rect x="361" y="1186" width="358" height="72" fill="#090A12" opacity="0.96" stroke="white" stroke-opacity="0.1"/>
      <text x="399" y="1220" fill="#C8FF3D" font-size="13" font-weight="800" text-anchor="middle">Home</text>
      <text x="487" y="1220" fill="white" opacity="0.48" font-size="13" font-weight="800" text-anchor="middle">Matches</text>
      <text x="579" y="1220" fill="white" opacity="0.48" font-size="13" font-weight="800" text-anchor="middle">Map</text>
      <text x="665" y="1220" fill="white" opacity="0.48" font-size="13" font-weight="800" text-anchor="middle">Profile</text>
    </g>
  </g>
  <text x="120" y="1460" fill="white" font-size="44" font-weight="900" text-anchor="middle"></text>
  <rect x="210" y="1510" width="660" height="86" rx="43" fill="#C8FF3D"/>
  <text x="540" y="1564" fill="#090A12" font-size="30" font-weight="900" text-anchor="middle">Tester access coming soon</text>
  <text x="540" y="1658" fill="white" opacity="0.65" font-size="26" font-weight="500" text-anchor="middle">Music taste. Vibe. Budget. Distance.</text>

</svg>